<svg width="65" height="19" viewBox="0 0 65 19" fill="none" xmlns="http://www.w3.org/2000/svg">
<path d="M4.35335 10.5236C2.9924 10.5236 1.88514 9.41934 1.88514 8.06241C1.88514 6.70535 2.9924 5.60126 4.35335 5.60126C5.71418 5.60126 6.82157 6.70535 6.82157 8.06241C6.82157 9.41934 5.71418 10.5236 4.35335 10.5236ZM4.35335 3.96057C2.08506 3.96057 0.239746 5.8006 0.239746 8.06241C0.239746 10.3241 2.08506 12.1642 4.35335 12.1642C5.27871 12.1642 6.13356 11.8578 6.82157 11.3416V14.2738C6.82157 15.6307 5.71418 16.7349 4.35335 16.7349V18.3756C6.62152 18.3756 8.46696 16.5355 8.46696 14.2738V8.06241C8.46696 5.8006 6.62152 3.96057 4.35335 3.96057Z" fill="#797874"/>
<path d="M15.872 8.29668C15.872 9.65374 14.7647 10.7578 13.4038 10.7578C12.0428 10.7578 10.9356 9.65374 10.9356 8.29668V4.54645H9.29017V8.29668C9.29017 10.5585 11.1355 12.3985 13.4038 12.3985C15.6721 12.3985 17.5174 10.5585 17.5174 8.29668V4.54645H15.872V8.29668Z" fill="#797874"/>
<path d="M29.0351 4.19485C27.6909 4.19485 26.4953 4.84125 25.7442 5.83861C24.9929 4.84125 23.7974 4.19485 22.4533 4.19485C20.185 4.19485 18.3397 6.03501 18.3397 8.29669V12.047H19.9851V8.29669C19.9851 6.93963 21.0924 5.83554 22.4533 5.83554C23.8143 5.83554 24.9215 6.93963 24.9215 8.29669V12.047H26.5669V8.29669C26.5669 6.93963 27.6742 5.83554 29.0351 5.83554C30.3961 5.83554 31.5033 6.93963 31.5033 8.29669V12.047H33.1487V8.29669C33.1487 6.03501 31.3033 4.19485 29.0351 4.19485Z" fill="#797874"/>
<path d="M34.089 8.29669V12.047H35.7344V8.29669C35.7344 6.93963 36.8417 5.83554 38.2026 5.83554V4.19485C35.9343 4.19485 34.089 6.03501 34.089 8.29669Z" fill="#797874"/>
<path d="M42.7863 10.5235C41.4253 10.5235 40.3181 9.41932 40.3181 8.06239C40.3181 6.70533 41.4253 5.60124 42.7863 5.60124C44.1471 5.60124 45.2545 6.70533 45.2545 8.06239C45.2545 9.41932 44.1471 10.5235 42.7863 10.5235ZM42.7863 3.96056C40.518 3.96056 38.6725 5.80058 38.6725 8.06239C38.6725 10.3241 40.518 12.1642 42.7863 12.1642C45.0545 12.1642 46.8999 10.3241 46.8999 8.06239C46.8999 5.80058 45.0545 3.96056 42.7863 3.96056Z" fill="#797874"/>
<path d="M51.8363 10.5235C50.4753 10.5235 49.3681 9.41932 49.3681 8.06239C49.3681 6.70533 50.4753 5.60124 51.8363 5.60124C53.1973 5.60124 54.3045 6.70533 54.3045 8.06239C54.3045 9.41932 53.1973 10.5235 51.8363 10.5235ZM51.8363 3.96056C49.568 3.96056 47.7227 5.80058 47.7227 8.06239C47.7227 10.3241 49.568 12.1642 51.8363 12.1642C52.7617 12.1642 53.6165 11.8578 54.3045 11.3416V11.9297H55.9499V8.06239C55.9499 5.80058 54.1045 3.96056 51.8363 3.96056Z" fill="#797874"/>
<path d="M60.8862 10.5235C59.5253 10.5235 58.418 9.41932 58.418 8.06239C58.418 6.70533 59.5253 5.60124 60.8862 5.60124C62.2468 5.60124 63.3544 6.70533 63.3544 8.06239C63.3544 9.41932 62.2468 10.5235 60.8862 10.5235ZM63.3544 0.210205V4.78308C62.6662 4.26702 61.8116 3.96056 60.8862 3.96056C58.6179 3.96056 56.7726 5.80058 56.7726 8.06239C56.7726 10.3241 58.6179 12.1642 60.8862 12.1642C63.155 12.1642 64.9998 10.3241 64.9998 8.06239V0.210205H63.3544Z" fill="#797874"/>
</svg>
